<?xml version="1.0" standalone="no"?>
<!DOCTYPE svg PUBLIC "-//W3C//DTD SVG 20010904//EN"
 "http://www.w3.org/TR/2001/REC-SVG-20010904/DTD/svg10.dtd">
<svg version="1.0" xmlns="http://www.w3.org/2000/svg"
 width="838.000000pt" height="838.000000pt" viewBox="0 0 838.000000 838.000000"
 preserveAspectRatio="xMidYMid meet">
<metadata>
Created by potrace 1.14, written by Peter Selinger 2001-2017
</metadata>
<g transform="translate(0.000000,838.000000) scale(0.100000,-0.100000)"
fill="#000000" stroke="none">
<path d="M780 4949 c0 -6 36 -44 80 -86 71 -66 150 -160 150 -177 0 -3 -43 -6
-95 -6 l-94 0 3 -413 c1 -228 5 -418 9 -423 3 -6 3 -15 -1 -21 -4 -6 -120 183
-258 421 l-250 431 -157 3 c-86 1 -157 -1 -158 -5 -1 -5 -2 -268 -2 -586 l-2
-577 113 0 114 0 -3 381 c-2 210 -6 403 -9 430 -4 27 -4 53 0 58 3 6 50 -67
103 -162 54 -95 167 -291 251 -437 l152 -265 148 -3 149 -3 -23 -24 c-13 -14
-29 -25 -37 -25 -29 0 -10 -19 34 -34 77 -26 160 -21 230 14 33 17 68 39 78
50 17 19 18 19 57 -15 102 -87 274 -87 374 -1 l38 33 49 -37 c108 -82 243 -82
362 0 l45 31 51 -35 c57 -40 105 -56 167 -56 l42 0 0 50 0 50 70 0 c49 0 70 4
70 13 1 6 1 120 2 252 1 253 9 317 47 378 45 73 173 88 225 26 14 -16 29 -46
33 -67 4 -20 7 -164 7 -319 l1 -283 123 0 122 0 1 253 c0 138 3 266 5 282 19
124 84 183 188 170 60 -7 74 -17 99 -74 17 -40 19 -69 19 -337 l1 -294 124 0
124 0 -1 325 c-2 355 -8 404 -59 480 -17 26 -46 50 -86 70 -54 28 -67 30 -159
30 -120 -1 -175 -21 -245 -92 -40 -41 -45 -43 -54 -27 -19 36 -52 66 -102 92
-44 23 -62 26 -155 26 -95 1 -110 -2 -156 -26 -28 -15 -65 -43 -82 -62 -17
-20 -35 -36 -40 -36 -5 0 -15 27 -22 60 l-13 60 -96 0 -96 0 3 -207 2 -208
-39 90 c-155 362 -430 637 -778 777 -190 76 -318 98 -590 98 -139 0 -203 -3
-203 -11z m299 -411 c45 -142 54 -220 55 -483 1 -230 -1 -257 -22 -332 -20
-74 -57 -173 -64 -173 -2 0 -3 236 -3 525 0 289 3 525 7 525 3 0 15 -28 27
-62z"/>
<path d="M5380 4949 c0 -6 36 -44 80 -86 71 -66 150 -160 150 -177 0 -3 -38
-6 -84 -6 l-85 0 3 -435 3 -435 -26 43 c-15 23 -30 49 -34 57 -3 8 -104 184
-225 390 l-218 375 -157 3 c-86 1 -157 -1 -158 -5 -1 -11 -1 -1135 0 -1150 1
-10 30 -13 112 -13 l111 0 -5 418 c-3 229 -7 427 -10 440 -12 46 10 17 83
-110 41 -72 87 -152 101 -177 15 -25 94 -163 176 -306 l150 -260 138 -3 138
-3 -23 -24 c-13 -14 -29 -25 -37 -25 -29 0 -10 -19 34 -34 77 -26 160 -21 230
14 33 17 68 39 78 50 17 19 18 19 57 -15 102 -87 274 -87 374 -1 l38 33 49
-37 c108 -82 243 -82 362 0 l45 31 51 -35 c57 -40 105 -56 167 -56 l42 0 0 50
0 50 88 0 87 0 -1 253 c-1 325 15 395 96 437 50 26 132 21 165 -10 44 -42 49
-76 49 -387 l1 -293 123 0 122 0 0 248 c1 284 3 311 33 371 28 56 61 80 118
87 69 9 115 -15 140 -71 18 -42 20 -67 21 -340 l0 -295 123 0 124 0 -3 348
c-2 293 -5 354 -19 390 -25 66 -64 109 -125 139 -51 25 -68 28 -157 28 -90 0
-106 -3 -158 -28 -32 -16 -71 -46 -89 -68 l-31 -39 -41 45 c-64 69 -121 90
-241 90 -89 0 -106 -3 -151 -27 -27 -15 -67 -45 -87 -67 -20 -22 -38 -37 -41
-33 -2 4 -9 33 -16 65 l-13 57 -94 0 c-67 0 -93 -3 -94 -12 0 -7 -1 -119 -1
-248 -1 -129 -4 -226 -8 -215 -90 237 -181 404 -291 532 -226 262 -513 424
-849 479 -105 17 -490 20 -490 3z m332 -537 c17 -83 21 -135 22 -352 1 -218
-2 -265 -17 -320 -28 -102 -38 -130 -45 -130 -4 0 -7 216 -7 481 0 520 1 530
47 321z"/>
<path d="M3957 3983 c1 -38 2 -83 2 -100 l1 -33 215 0 215 0 0 100 0 100 -217
0 -218 0 2 -67z"/>
</g>
</svg>
